<?xml version="1.0" encoding="UTF-8" standalone="no"?>
<!DOCTYPE svg PUBLIC "-//W3C//DTD SVG 1.1//EN" "http://www.w3.org/Graphics/SVG/1.1/DTD/svg11.dtd">
<svg version="1.1" xmlns="http://www.w3.org/2000/svg" xmlns:xlink="http://www.w3.org/1999/xlink" preserveAspectRatio="xMidYMid meet" viewBox="0 0 640 640" width="20" height="20"><defs><path d="M10 320C10 491.25 148.75 630 320 630C491.25 630 630 491.25 630 320C630 148.75 491.25 10 320 10C148.75 10 10 148.75 10 320ZM70 320C70 181.88 181.88 70 320 70C458.13 70 570 181.88 570 320C570 458.13 458.13 570 320 570C181.88 570 70 458.13 70 320ZM291.13 362.38C287.25 359.5 285 355 285 350.25C285 329.73 285 165.53 285 145C285 136.75 291.75 130 300 130C304 130 336 130 340 130C348.25 130 355 136.75 355 145C355 156.81 355 215.85 355 322.13C405.1 358.58 432.93 378.83 438.5 382.88C445.25 387.75 446.63 397.13 441.75 403.88C439.4 407.11 420.6 433.01 418.25 436.25C413.38 442.88 404 444.38 397.25 439.5C376.03 424.08 301.74 370.09 291.13 362.38Z" id="bAy7H6KiK"></path></defs><g><g><g><use xlink:href="#bAy7H6KiK" opacity="1" fill="#ffffff" fill-opacity="1"></use><g><use xlink:href="#bAy7H6KiK" opacity="1" fill-opacity="0" stroke="#2b1f56" stroke-width="6" stroke-opacity="1"></use></g></g></g></g></svg>